Coordinates
version=1
nRows=16
nColumns=33
inDegrees=yes

Units are S.I. units (second, meters, Newtons, ...)
Angles are in degrees.

endheader
time	ground_thorax_rot_x	ground_thorax_rot_y	ground_thorax_rot_z	ground_thorax_tx	ground_thorax_ty	ground_thorax_tz	clav_prot_r	clav_elev_r	scapula_abduction_r	scapula_elevation_r	scapula_upward_rot_r	scapula_winging_r	shoulder_elv_r	plane_of_elev_r	axial_rot_r	elbow_flexion_r	pro_sup_r	wrist_flex_r	wrist_dev_r	clav_prot_l	clav_elev_l	scapula_abduction_l	scapula_elevation_l	scapula_upward_rot_l	scapula_winging_l	shoulder_elv_l	plane_of_elev_l	axial_rot_l	elbow_flexion_l	pro_sup_l	wrist_flex_l	wrist_dev_l
     11.22000000	    -23.12791732	    -30.37763728	     49.23454230	     51.54508467	    764.38734808	    -35.83815517	     27.91872406	    -45.00000000	     39.29926470	    -45.00000000	    -45.00000000	  -3701.90882855	  -2626.00534721	    161.28690229	     45.74324455	   1801.49135737	    170.01002621	     12.04264607	     12.44158314	     -0.85244877	     29.90408666	    -26.67061465	    -45.00000000	    -45.00000000	  -4959.45356911	   -645.06402597	     25.90815653	     47.11744605	   1070.37174289	     44.31283350	     11.97088604	    -15.16434844
     11.23000000	    -23.39401356	    -30.14341509	     48.79794802	     48.39696629	    764.24802554	    -35.92287190	     27.88295738	    -45.00000000	     39.26215841	    -45.00000000	    -45.00000000	  -3702.07409905	  -2625.95307583	    161.25854675	     45.88539563	   1801.51174285	    170.31803732	     12.08679477	     12.51707629	     -0.85890828	     29.99326707	    -26.69587603	    -45.00000000	    -45.00000000	  -4959.33618378	   -645.05894468	     25.89990685	     46.84514282	   1070.40409292	     44.66234319	     11.92890354	    -15.24178750
     11.24000000	    -23.64040407	    -29.94621580	     48.38831132	     45.16928087	    764.13737593	    -36.03724309	     27.86412665	    -45.00000000	     39.21757640	    -45.00000000	    -45.00000000	  -3702.22164515	  -2625.86333572	    161.27974460	     46.00145850	   1801.46958717	    170.63850371	     12.15508411	     12.59892784	     -0.87990694	     30.02087570	    -26.72099440	    -45.00000000	    -45.00000000	  -4959.20829666	   -645.05065448	     25.86712538	     46.53343140	   1070.38440794	     44.98720635	     11.91485559	    -15.30317662
     11.25000000	    -23.90873359	    -29.71952753	     47.92909733	     41.87604770	    764.05783390	    -36.16132182	     27.85495212	    -45.00000000	     39.15528089	    -45.00000000	    -45.00000000	  -3702.37868639	  -2625.80762848	    161.27709498	     46.13285052	   1801.42717356	    170.94885719	     12.22358879	     12.70360396	     -0.89423660	     30.09305454	    -26.74646847	    -45.00000000	    -45.00000000	  -4959.09803414	   -645.03416153	     25.82861602	     46.30111284	   1070.37397035	     45.25353839	     11.91520154	    -15.35893229
     11.26000000	    -24.18147159	    -29.46594559	     47.47571830	     38.49727715	    764.02090791	    -36.32020841	     27.90366782	    -45.00000000	     39.09662709	    -45.00000000	    -45.00000000	  -3702.52187881	  -2625.72608226	    161.31534098	     46.29909134	   1801.38796726	    171.28102423	     12.28597780	     12.84076371	     -0.93401569	     30.15881540	    -26.75408921	    -45.00000000	    -45.00000000	  -4959.00343147	   -645.01256090	     25.81964213	     46.01582374	   1070.37009305	     45.45272485	     11.93764226	    -15.41520253
     11.27000000	    -24.43987181	    -29.21345578	     47.00138237	     35.02029788	    764.04208269	    -36.55129633	     27.86194859	    -45.00000000	     39.04336692	    -45.00000000	    -45.00000000	  -3702.70179011	  -2625.62065135	    161.30112483	     46.59093795	   1801.37198747	    171.74333452	     12.38856457	     13.03608787	     -0.96363232	     30.19439075	    -26.78342242	    -45.00000000	    -45.00000000	  -4958.91083980	   -645.02757586	     25.80800024	     45.77186406	   1070.35750349	     45.57994202	     11.95698371	    -15.44818063
     11.28000000	    -24.71358373	    -29.00433288	     46.55568726	     31.42555539	    764.13632766	    -36.89519856	     27.67252950	    -45.00000000	     38.95372309	    -45.00000000	    -45.00000000	  -3702.87726267	  -2625.55576591	    161.34984709	     46.97731016	   1801.31872483	    172.47592115	     12.59120937	     13.29594844	     -0.92146868	     30.21551707	    -26.79294325	    -45.00000000	    -45.00000000	  -4958.79723387	   -645.02814415	     25.74161452	     45.52777145	   1070.35005122	     45.64198951	     11.95294167	    -15.44540398
     11.29000000	    -25.01898747	    -28.77764613	     46.01507305	     27.69181101	    764.32094483	    -37.38961990	     27.41624355	    -45.00000000	     38.85050959	    -45.00000000	    -45.00000000	  -3703.06845181	  -2625.48451125	    161.32716866	     47.41792499	   1801.33161207	    173.59808857	     12.87892499	     13.67197003	     -0.84940509	     30.12197089	    -26.84289293	    -45.00000000	    -45.00000000	  -4958.68382513	   -645.10091658	     25.69334836	     45.31904546	   1070.36557928	     45.65507973	     11.92318913	    -15.42671942
     11.30000000	    -25.31265656	    -28.53545379	     45.51130863	     23.82973006	    764.60751355	    -38.08998007	     27.37758319	    -45.00000000	     38.74991548	    -45.00000000	    -45.00000000	  -3703.26673670	  -2625.33299380	    161.43624266	     48.16632778	   1801.18240986	    175.38481660	     13.27545293	     14.25295947	     -0.86078635	     30.18721328	    -26.81534095	    -45.00000000	    -45.00000000	  -4958.65044683	   -645.07058492	     25.69339798	     45.11709290	   1070.29489486	     45.63834304	     11.95393337	    -15.42348732
     11.31000000	    -28.86319432	    -28.50215290	     44.01763123	     17.61338657	    778.03629925	    -49.57307520	     28.07271648	    -45.00000000	     38.29877720	    -45.00000000	    -45.00000000	  -3702.13615955	  -2625.14018534	    162.94097631	     49.57952912	   1800.92250034	    174.92841972	     22.61978719	     17.66151225	     -0.25173654	     30.52892556	    -27.27972412	    -45.00000000	    -45.00000000	  -4958.23390398	   -645.02973075	     25.84932306	     44.45403435	   1070.65829538	     45.70950050	     11.84685906	    -15.56861682
     11.32000000	    -29.43052755	    -27.95846156	     43.18555016	     14.12218953	    778.35932227	    -49.47535195	     27.18286937	    -45.00000000	     37.88834236	    -45.00000000	    -45.00000000	  -3702.11969284	  -2625.01359614	    162.91339717	     49.53152864	   1800.94074984	    175.26999288	     22.82362739	     17.82780593	      0.41998627	     30.46260170	    -27.65576835	    -45.00000000	    -45.00000000	  -4958.08751665	   -645.11878373	     25.86956351	     44.31384066	   1070.67021859	     45.81387028	     11.84586674	    -15.59465465
     11.33000000	    -29.63401374	    -27.68900548	     42.75713796	     10.64610423	    778.75699746	    -49.39331677	     27.30749768	    -45.00000000	     37.91105933	    -45.00000000	    -45.00000000	  -3702.33492006	  -2624.91485825	    162.91398953	     49.74208671	   1800.93062498	    175.60440995	     22.91551023	     17.94063090	      0.31125310	     30.47008180	    -27.61723011	    -45.00000000	    -45.00000000	  -4957.99896044	   -645.08417129	     25.86960026	     44.30319620	   1070.63226591	     45.84379186	     11.83650651	    -15.60754844
     11.34000000	    -29.85636121	    -27.39953797	     42.33686353	      7.18361774	    779.23598025	    -49.32569775	     27.26710300	    -45.00000000	     37.86296740	    -45.00000000	    -45.00000000	  -3702.52883099	  -2624.80126940	    162.91117969	     49.98314972	   1800.90963707	    175.91576922	     22.98672782	     18.05345867	      0.29732706	     30.51049122	    -27.64219362	    -45.00000000	    -45.00000000	  -4957.87862568	   -645.07923815	     25.86571065	     44.23478703	   1070.58537246	     45.83881688	     11.83445567	    -15.62214834
     11.35000000	    -26.18711746	    -27.51839065	     43.53668483	      5.96583336	    766.08091839	    -36.19621039	     28.96405956	    -45.00000000	     39.01384799	    -45.00000000	    -45.00000000	  -3704.37534584	  -2624.87719158	    161.29392644	     48.87290598	   1801.19975957	    173.67191237	     12.85284034	     13.60486130	     -1.44970639	     30.55430380	    -26.69363790	    -45.00000000	    -45.00000000	  -4957.92562852	   -645.00362401	     25.63744699	     44.23240659	   1070.12317200	     45.29893970	     12.08424936	    -15.54500969
     11.36000000	    -30.05434931	    -27.01904356	     41.78135897	      0.29088022	    780.45656064	    -49.22894920	     27.90245598	    -45.00000000	     38.00428568	    -45.00000000	    -45.00000000	  -3703.04954735	  -2624.55867917	    162.98654346	     50.95560858	   1800.65240257	    175.00706288	     22.80482721	     18.24536365	     -0.30784963	     30.68464051	    -27.42438230	    -45.00000000	    -45.00000000	  -4957.65508969	   -645.03773003	     25.83150202	     44.05065067	   1070.51003951	     45.43349674	     11.88969350	    -15.66731490
     11.37000000	    -30.50786118	    -26.50928477	     41.09041286	     -3.13801902	    781.20938956	    -49.19839206	     27.21461658	    -45.00000000	     37.71549509	    -45.00000000	    -45.00000000	  -3703.05228032	  -2624.49597655	    163.00285784	     50.59338664	   1800.61028240	    175.79496433	     22.89451973	     18.36582495	      0.21277473	     30.69733908	    -27.72830702	    -45.00000000	    -45.00000000	  -4957.52922111	   -645.05051340	     25.86653086	     44.12250922	   1070.44855267	     45.50928359	     11.89454071	    -15.70477259
